<?xml version="1.0" encoding="UTF-8" standalone="no"?>
<!DOCTYPE svg PUBLIC "-//W3C//DTD SVG 1.1//EN"
 "http://www.w3.org/Graphics/SVG/1.1/DTD/svg11.dtd">
<!-- Generated by graphviz version 2.43.0 (0)
 -->
<!-- Title: fiftyone\pipeline\engines\AspectData Pages: 1 -->
<svg width="145pt" height="173pt"
 viewBox="0.00 0.00 145.00 173.00" xmlns="http://www.w3.org/2000/svg" xmlns:xlink="http://www.w3.org/1999/xlink">
<g id="graph0" class="graph" transform="scale(1 1) rotate(0) translate(4 169)">
<title>fiftyone\pipeline\engines\AspectData</title>
<!-- Node0 -->
<g id="node1" class="node">
<title>Node0</title>
<g id="a_node1"><a xlink:title="aspectData extends elementData by adding the option of a missing property service It also allows prop...">
<polygon fill="#bfbfbf" stroke="black" points="0,-67.5 0,-97.5 137,-97.5 137,-67.5 0,-67.5"/>
<text text-anchor="start" x="8" y="-85.5" font-family="Helvetica,sans-Serif" font-size="10.00">fiftyone\pipeline\engines</text>
<text text-anchor="middle" x="68.5" y="-74.5" font-family="Helvetica,sans-Serif" font-size="10.00">\AspectData</text>
</a>
</g>
</g>
<!-- Node2 -->
<g id="node3" class="node">
<title>Node2</title>
<g id="a_node3"><a xlink:href="classfiftyone_1_1pipeline_1_1engines_1_1_aspect_data_dictionary.html" target="_top" xlink:title="aspectData class extension that stores content as an array Similar to elementDataDictionary in the Pi...">
<polygon fill="none" stroke="black" points="0,-0.5 0,-30.5 137,-30.5 137,-0.5 0,-0.5"/>
<text text-anchor="start" x="8" y="-18.5" font-family="Helvetica,sans-Serif" font-size="10.00">fiftyone\pipeline\engines</text>
<text text-anchor="middle" x="68.5" y="-7.5" font-family="Helvetica,sans-Serif" font-size="10.00">\AspectDataDictionary</text>
</a>
</g>
</g>
<!-- Node0&#45;&gt;Node2 -->
<g id="edge3" class="edge">
<title>Node0&#45;&gt;Node2</title>
<path fill="none" stroke="midnightblue" d="M61.95,-57.4C61.51,-48.37 61.8,-38.41 62.83,-30.58"/>
<polygon fill="midnightblue" stroke="midnightblue" points="58.47,-57.74 62.82,-67.4 65.44,-57.13 58.47,-57.74"/>
</g>
<!-- Node0&#45;&gt;Node2 -->
<g id="edge4" class="edge">
<title>Node0&#45;&gt;Node2</title>
<path fill="none" stroke="midnightblue" d="M75.05,-57.4C75.49,-48.37 75.2,-38.41 74.17,-30.58"/>
<polygon fill="midnightblue" stroke="midnightblue" points="71.56,-57.13 74.18,-67.4 78.53,-57.74 71.56,-57.13"/>
</g>
<!-- Node1 -->
<g id="node2" class="node">
<title>Node1</title>
<g id="a_node2"><a xlink:href="classfiftyone_1_1pipeline_1_1core_1_1_element_data.html" target="_top" xlink:title="Stores information created by a FlowElement based on FlowData.">
<polygon fill="none" stroke="black" points="9,-134.5 9,-164.5 128,-164.5 128,-134.5 9,-134.5"/>
<text text-anchor="start" x="17" y="-152.5" font-family="Helvetica,sans-Serif" font-size="10.00">fiftyone\pipeline\core</text>
<text text-anchor="middle" x="68.5" y="-141.5" font-family="Helvetica,sans-Serif" font-size="10.00">\ElementData</text>
</a>
</g>
</g>
<!-- Node1&#45;&gt;Node0 -->
<g id="edge1" class="edge">
<title>Node1&#45;&gt;Node0</title>
<path fill="none" stroke="midnightblue" d="M61.95,-124.4C61.51,-115.37 61.8,-105.41 62.83,-97.58"/>
<polygon fill="midnightblue" stroke="midnightblue" points="58.47,-124.74 62.82,-134.4 65.44,-124.13 58.47,-124.74"/>
</g>
<!-- Node1&#45;&gt;Node0 -->
<g id="edge2" class="edge">
<title>Node1&#45;&gt;Node0</title>
<path fill="none" stroke="midnightblue" d="M75.05,-124.4C75.49,-115.37 75.2,-105.41 74.17,-97.58"/>
<polygon fill="midnightblue" stroke="midnightblue" points="71.56,-124.13 74.18,-134.4 78.53,-124.74 71.56,-124.13"/>
</g>
</g>
</svg>
