<?xml version="1.0" encoding="UTF-8" standalone="no"?>
<!DOCTYPE svg PUBLIC "-//W3C//DTD SVG 1.1//EN"
 "http://www.w3.org/Graphics/SVG/1.1/DTD/svg11.dtd">
<!-- Generated by graphviz version 2.43.0 (0)
 -->
<!-- Title: fiftyone\pipeline\core\FlowElement Pages: 1 -->
<svg width="978pt" height="384pt"
 viewBox="0.00 0.00 978.00 384.21" xmlns="http://www.w3.org/2000/svg" xmlns:xlink="http://www.w3.org/1999/xlink">
<g id="graph0" class="graph" transform="scale(1 1) rotate(0) translate(4 380.21)">
<title>fiftyone\pipeline\core\FlowElement</title>
<!-- Node0 -->
<g id="node1" class="node">
<title>Node0</title>
<g id="a_node1"><a xlink:title="A FlowElement is placed inside a Pipeline It receives Evidence via a FlowData object It uses this to ...">
<polygon fill="#bfbfbf" stroke="black" points="0,-220.5 0,-250.5 119,-250.5 119,-220.5 0,-220.5"/>
<text text-anchor="start" x="8" y="-238.5" font-family="Helvetica,sans-Serif" font-size="10.00">fiftyone\pipeline\core</text>
<text text-anchor="middle" x="59.5" y="-227.5" font-family="Helvetica,sans-Serif" font-size="10.00">\FlowElement</text>
</a>
</g>
</g>
<!-- Node1 -->
<g id="node2" class="node">
<title>Node1</title>
<g id="a_node2"><a xlink:href="class_astrology_flow_element.html" target="_top" xlink:title="[class] [declaration]">
<polygon fill="none" stroke="black" points="163,-346 163,-365 290,-365 290,-346 163,-346"/>
<text text-anchor="middle" x="226.5" y="-353" font-family="Helvetica,sans-Serif" font-size="10.00">AstrologyFlowElement</text>
</a>
</g>
</g>
<!-- Node0&#45;&gt;Node1 -->
<g id="edge1" class="edge">
<title>Node0&#45;&gt;Node1</title>
<path fill="none" stroke="midnightblue" d="M95.12,-257.99C111.35,-274.96 132.15,-295.77 155,-309.5 179.12,-323.99 214.42,-327.64 223.38,-345.96"/>
<polygon fill="midnightblue" stroke="midnightblue" points="97.42,-255.33 87.99,-250.5 92.35,-260.16 97.42,-255.33"/>
</g>
<!-- Node0&#45;&gt;Node1 -->
<g id="edge2" class="edge">
<title>Node0&#45;&gt;Node1</title>
<path fill="none" stroke="midnightblue" d="M81.64,-258.62C98.88,-279.64 125.2,-309.6 155,-327.5 170.86,-337.03 191.56,-341.87 206.42,-345.94"/>
<polygon fill="midnightblue" stroke="midnightblue" points="84.28,-256.32 75.26,-250.77 78.85,-260.74 84.28,-256.32"/>
</g>
<!-- Node0&#45;&gt;Node1 -->
<g id="edge3" class="edge">
<title>Node0&#45;&gt;Node1</title>
<path fill="none" stroke="midnightblue" d="M72.2,-259.25C88.2,-284.81 119.07,-323.91 155,-345.5 157.5,-347 160.12,-348.39 162.82,-349.66"/>
<polygon fill="midnightblue" stroke="midnightblue" points="75.11,-257.31 66.99,-250.51 69.1,-260.89 75.11,-257.31"/>
</g>
<!-- Node0&#45;&gt;Node1 -->
<g id="edge4" class="edge">
<title>Node0&#45;&gt;Node1</title>
<path fill="none" stroke="midnightblue" d="M66.85,-260.11C80.47,-292.62 114.52,-339.18 155,-363.5 178.91,-377.86 213.79,-381.57 223.13,-365.19"/>
<polygon fill="midnightblue" stroke="midnightblue" points="70.05,-258.67 63.3,-250.51 63.49,-261.1 70.05,-258.67"/>
</g>
<!-- Node2 -->
<g id="node3" class="node">
<title>Node2</title>
<g id="a_node3"><a xlink:href="class_example_flow_element_a.html" target="_top" xlink:title=" ">
<polygon fill="none" stroke="black" points="161.5,-308 161.5,-327 291.5,-327 291.5,-308 161.5,-308"/>
<text text-anchor="middle" x="226.5" y="-315" font-family="Helvetica,sans-Serif" font-size="10.00">ExampleFlowElementA</text>
</a>
</g>
</g>
<!-- Node0&#45;&gt;Node2 -->
<g id="edge5" class="edge">
<title>Node0&#45;&gt;Node2</title>
<path fill="none" stroke="midnightblue" d="M125.06,-255.74C134.8,-261.38 144.96,-266.95 155,-271.5 180.63,-283.12 214.83,-288.87 223.46,-307.81"/>
<polygon fill="midnightblue" stroke="midnightblue" points="126.63,-252.61 116.23,-250.57 123.09,-258.65 126.63,-252.61"/>
</g>
<!-- Node0&#45;&gt;Node2 -->
<g id="edge6" class="edge">
<title>Node0&#45;&gt;Node2</title>
<path fill="none" stroke="midnightblue" d="M98.06,-256.36C114.76,-267.49 135.12,-280.49 155,-289.5 173.13,-297.72 195.54,-303 210.16,-307.94"/>
<polygon fill="midnightblue" stroke="midnightblue" points="99.93,-253.41 89.68,-250.75 96.04,-259.22 99.93,-253.41"/>
</g>
<!-- Node0&#45;&gt;Node2 -->
<g id="edge7" class="edge">
<title>Node0&#45;&gt;Node2</title>
<path fill="none" stroke="midnightblue" d="M79.33,-257.68C97.66,-273.93 126.81,-294.72 155,-307.5 157.08,-308.44 159.21,-309.35 161.39,-310.21"/>
<polygon fill="midnightblue" stroke="midnightblue" points="81.41,-254.84 71.71,-250.58 76.64,-259.96 81.41,-254.84"/>
</g>
<!-- Node0&#45;&gt;Node2 -->
<g id="edge8" class="edge">
<title>Node0&#45;&gt;Node2</title>
<path fill="none" stroke="midnightblue" d="M69.6,-259.23C85.8,-283.16 121.09,-310.13 155,-325.5 180.4,-337.01 214.21,-342.77 223.22,-327.03"/>
<polygon fill="midnightblue" stroke="midnightblue" points="72.61,-257.44 64.54,-250.58 66.57,-260.98 72.61,-257.44"/>
</g>
<!-- Node3 -->
<g id="node4" class="node">
<title>Node3</title>
<g id="a_node4"><a xlink:href="class_example_flow_element_b.html" target="_top" xlink:title=" ">
<polygon fill="none" stroke="black" points="161.5,-270 161.5,-289 291.5,-289 291.5,-270 161.5,-270"/>
<text text-anchor="middle" x="226.5" y="-277" font-family="Helvetica,sans-Serif" font-size="10.00">ExampleFlowElementB</text>
</a>
</g>
</g>
<!-- Node0&#45;&gt;Node3 -->
<g id="edge9" class="edge">
<title>Node0&#45;&gt;Node3</title>
<path fill="none" stroke="midnightblue" d="M129.22,-233.83C165.38,-242.13 205.17,-256.72 219.75,-269.91"/>
<polygon fill="midnightblue" stroke="midnightblue" points="129.65,-230.34 119.14,-231.66 128.18,-237.18 129.65,-230.34"/>
</g>
<!-- Node0&#45;&gt;Node3 -->
<g id="edge10" class="edge">
<title>Node0&#45;&gt;Node3</title>
<path fill="none" stroke="midnightblue" d="M128.95,-247.09C157,-254.22 187.3,-263.01 206.32,-269.87"/>
<polygon fill="midnightblue" stroke="midnightblue" points="129.69,-243.67 119.14,-244.64 127.99,-250.46 129.69,-243.67"/>
</g>
<!-- Node0&#45;&gt;Node3 -->
<g id="edge11" class="edge">
<title>Node0&#45;&gt;Node3</title>
<path fill="none" stroke="midnightblue" d="M105.48,-253.58C123.87,-259.18 145.43,-265.08 165.16,-269.94"/>
<polygon fill="midnightblue" stroke="midnightblue" points="106.49,-250.23 95.9,-250.6 104.4,-256.91 106.49,-250.23"/>
</g>
<!-- Node0&#45;&gt;Node3 -->
<g id="edge12" class="edge">
<title>Node0&#45;&gt;Node3</title>
<path fill="none" stroke="midnightblue" d="M82.41,-255.63C102.51,-266.05 133.31,-276.1 161.18,-282.16"/>
<polygon fill="midnightblue" stroke="midnightblue" points="84.14,-252.58 73.72,-250.66 80.67,-258.66 84.14,-252.58"/>
</g>
<!-- Node4 -->
<g id="node5" class="node">
<title>Node4</title>
<g id="a_node5"><a xlink:href="classfiftyone_1_1pipeline_1_1core_1_1_javascript_builder_element.html" target="_top" xlink:title="The JavaScriptBuilder aggregates JavaScript properties from FlowElements in the Pipeline.">
<polygon fill="none" stroke="black" points="155,-220.5 155,-250.5 298,-250.5 298,-220.5 155,-220.5"/>
<text text-anchor="start" x="163" y="-238.5" font-family="Helvetica,sans-Serif" font-size="10.00">fiftyone\pipeline\core</text>
<text text-anchor="middle" x="226.5" y="-227.5" font-family="Helvetica,sans-Serif" font-size="10.00">\JavascriptBuilderElement</text>
</a>
</g>
</g>
<!-- Node0&#45;&gt;Node4 -->
<g id="edge13" class="edge">
<title>Node0&#45;&gt;Node4</title>
<path fill="none" stroke="midnightblue" d="M95.66,-218.57C127.15,-213.58 172.55,-214.22 200.48,-220.48"/>
<polygon fill="midnightblue" stroke="midnightblue" points="94.74,-215.18 85.56,-220.47 96.04,-222.06 94.74,-215.18"/>
</g>
<!-- Node0&#45;&gt;Node4 -->
<g id="edge14" class="edge">
<title>Node0&#45;&gt;Node4</title>
<path fill="none" stroke="midnightblue" d="M129.33,-228.83C137.78,-228.73 146.43,-228.72 154.91,-228.81"/>
<polygon fill="midnightblue" stroke="midnightblue" points="129.08,-225.34 119.14,-229.01 129.2,-232.34 129.08,-225.34"/>
</g>
<!-- Node0&#45;&gt;Node4 -->
<g id="edge15" class="edge">
<title>Node0&#45;&gt;Node4</title>
<path fill="none" stroke="midnightblue" d="M129.33,-242.17C137.78,-242.27 146.43,-242.28 154.91,-242.19"/>
<polygon fill="midnightblue" stroke="midnightblue" points="129.2,-238.66 119.14,-241.99 129.08,-245.66 129.2,-238.66"/>
</g>
<!-- Node0&#45;&gt;Node4 -->
<g id="edge16" class="edge">
<title>Node0&#45;&gt;Node4</title>
<path fill="none" stroke="midnightblue" d="M95.66,-252.43C127.15,-257.42 172.55,-256.78 200.48,-250.52"/>
<polygon fill="midnightblue" stroke="midnightblue" points="96.04,-248.94 85.56,-250.53 94.74,-255.82 96.04,-248.94"/>
</g>
<!-- Node5 -->
<g id="node6" class="node">
<title>Node5</title>
<g id="a_node6"><a xlink:href="classfiftyone_1_1pipeline_1_1core_1_1_json_bundler_element.html" target="_top" xlink:title="The JSONBundler aggregates all properties from FlowElements into a JSON object It is used for retriev...">
<polygon fill="none" stroke="black" points="167,-171.5 167,-201.5 286,-201.5 286,-171.5 167,-171.5"/>
<text text-anchor="start" x="175" y="-189.5" font-family="Helvetica,sans-Serif" font-size="10.00">fiftyone\pipeline\core</text>
<text text-anchor="middle" x="226.5" y="-178.5" font-family="Helvetica,sans-Serif" font-size="10.00">\JsonBundlerElement</text>
</a>
</g>
</g>
<!-- Node0&#45;&gt;Node5 -->
<g id="edge17" class="edge">
<title>Node0&#45;&gt;Node5</title>
<path fill="none" stroke="midnightblue" d="M81.5,-215.22C102.89,-203.28 137.03,-191.33 166.7,-184.47"/>
<polygon fill="midnightblue" stroke="midnightblue" points="79.59,-212.28 72.9,-220.5 83.26,-218.25 79.59,-212.28"/>
</g>
<!-- Node0&#45;&gt;Node5 -->
<g id="edge18" class="edge">
<title>Node0&#45;&gt;Node5</title>
<path fill="none" stroke="midnightblue" d="M102.27,-217.14C121.89,-210.48 145.62,-203.26 166.99,-197.39"/>
<polygon fill="midnightblue" stroke="midnightblue" points="101.01,-213.87 92.71,-220.46 103.3,-220.48 101.01,-213.87"/>
</g>
<!-- Node0&#45;&gt;Node5 -->
<g id="edge19" class="edge">
<title>Node0&#45;&gt;Node5</title>
<path fill="none" stroke="midnightblue" d="M128.87,-221.86C151.06,-215.55 174.65,-208.16 192.97,-201.66"/>
<polygon fill="midnightblue" stroke="midnightblue" points="127.83,-218.52 119.14,-224.58 129.71,-225.26 127.83,-218.52"/>
</g>
<!-- Node0&#45;&gt;Node5 -->
<g id="edge20" class="edge">
<title>Node0&#45;&gt;Node5</title>
<path fill="none" stroke="midnightblue" d="M128.86,-235.18C160.55,-226.98 195.12,-213.83 213.08,-201.51"/>
<polygon fill="midnightblue" stroke="midnightblue" points="128.02,-231.79 119.14,-237.56 129.68,-238.58 128.02,-231.79"/>
</g>
<!-- Node6 -->
<g id="node7" class="node">
<title>Node6</title>
<g id="a_node7"><a xlink:href="classfiftyone_1_1pipeline_1_1core_1_1_sequence_element.html" target="_top" xlink:title="The SequenceElement stores session data regarding requests for client side JavaScript from the JavaSc...">
<polygon fill="none" stroke="black" points="167,-122.5 167,-152.5 286,-152.5 286,-122.5 167,-122.5"/>
<text text-anchor="start" x="175" y="-140.5" font-family="Helvetica,sans-Serif" font-size="10.00">fiftyone\pipeline\core</text>
<text text-anchor="middle" x="226.5" y="-129.5" font-family="Helvetica,sans-Serif" font-size="10.00">\SequenceElement</text>
</a>
</g>
</g>
<!-- Node0&#45;&gt;Node6 -->
<g id="edge21" class="edge">
<title>Node0&#45;&gt;Node6</title>
<path fill="none" stroke="midnightblue" d="M69.08,-211.46C84.92,-185.61 120.32,-154.41 155,-135.5 175.75,-124.18 202.63,-116.32 216.43,-122.42"/>
<polygon fill="midnightblue" stroke="midnightblue" points="65.95,-209.89 64.32,-220.35 72.12,-213.19 65.95,-209.89"/>
</g>
<!-- Node0&#45;&gt;Node6 -->
<g id="edge22" class="edge">
<title>Node0&#45;&gt;Node6</title>
<path fill="none" stroke="midnightblue" d="M77.48,-212.94C95.55,-194.5 125.54,-169.57 155,-153.5 158.76,-151.45 162.73,-149.51 166.78,-147.71"/>
<polygon fill="midnightblue" stroke="midnightblue" points="74.78,-210.71 70.5,-220.4 79.89,-215.49 74.78,-210.71"/>
</g>
<!-- Node0&#45;&gt;Node6 -->
<g id="edge23" class="edge">
<title>Node0&#45;&gt;Node6</title>
<path fill="none" stroke="midnightblue" d="M93.55,-213.85C110.91,-200.28 133.1,-183.44 155,-171.5 169.02,-163.85 185.85,-157.78 199.54,-152.54"/>
<polygon fill="midnightblue" stroke="midnightblue" points="91.14,-211.28 85.43,-220.21 95.46,-216.79 91.14,-211.28"/>
</g>
<!-- Node0&#45;&gt;Node6 -->
<g id="edge24" class="edge">
<title>Node0&#45;&gt;Node6</title>
<path fill="none" stroke="midnightblue" d="M115.9,-214.45C128.27,-205.83 141.69,-196.76 155,-189.5 177.8,-177.06 208.01,-168.8 220.13,-152.91"/>
<polygon fill="midnightblue" stroke="midnightblue" points="113.7,-211.72 107.51,-220.32 117.71,-217.45 113.7,-211.72"/>
</g>
<!-- Node7 -->
<g id="node8" class="node">
<title>Node7</title>
<g id="a_node8"><a xlink:href="classfiftyone_1_1pipeline_1_1core_1_1_set_header_element.html" target="_top" xlink:title="Set response headers element class.">
<polygon fill="none" stroke="black" points="167,-73.5 167,-103.5 286,-103.5 286,-73.5 167,-73.5"/>
<text text-anchor="start" x="175" y="-91.5" font-family="Helvetica,sans-Serif" font-size="10.00">fiftyone\pipeline\core</text>
<text text-anchor="middle" x="226.5" y="-80.5" font-family="Helvetica,sans-Serif" font-size="10.00">\SetHeaderElement</text>
</a>
</g>
</g>
<!-- Node0&#45;&gt;Node7 -->
<g id="edge25" class="edge">
<title>Node0&#45;&gt;Node7</title>
<path fill="none" stroke="midnightblue" d="M65.99,-210.52C78.57,-174.29 111.75,-117.79 155,-86.5 174.57,-72.34 202.92,-65.56 216.96,-73.27"/>
<polygon fill="midnightblue" stroke="midnightblue" points="62.62,-209.58 63,-220.17 69.31,-211.66 62.62,-209.58"/>
</g>
<!-- Node0&#45;&gt;Node7 -->
<g id="edge26" class="edge">
<title>Node0&#45;&gt;Node7</title>
<path fill="none" stroke="midnightblue" d="M70.29,-211.07C85.19,-181.43 116,-132.72 155,-104.5 158.68,-101.84 162.68,-99.43 166.83,-97.29"/>
<polygon fill="midnightblue" stroke="midnightblue" points="67.01,-209.81 65.86,-220.34 73.33,-212.83 67.01,-209.81"/>
</g>
<!-- Node0&#45;&gt;Node7 -->
<g id="edge27" class="edge">
<title>Node0&#45;&gt;Node7</title>
<path fill="none" stroke="midnightblue" d="M77.61,-211.43C94.14,-185.96 121.55,-146.69 155,-122.5 166.68,-114.05 181.48,-108.23 194.51,-103.61"/>
<polygon fill="midnightblue" stroke="midnightblue" points="74.47,-209.83 72.02,-220.13 80.36,-213.61 74.47,-209.83"/>
</g>
<!-- Node0&#45;&gt;Node7 -->
<g id="edge28" class="edge">
<title>Node0&#45;&gt;Node7</title>
<path fill="none" stroke="midnightblue" d="M87.73,-212.11C104.36,-190.11 127.67,-160.27 155,-140.5 176.04,-125.28 207.24,-118.58 219.88,-103.51"/>
<polygon fill="midnightblue" stroke="midnightblue" points="84.92,-210.03 81.69,-220.13 90.51,-214.25 84.92,-210.03"/>
</g>
<!-- Node8 -->
<g id="node9" class="node">
<title>Node8</title>
<g id="a_node9"><a xlink:href="classfiftyone_1_1pipeline_1_1engines_1_1_engine.html" target="_top" xlink:title="An engine is an extension of the Pipeline Core flowElement class It allows for a cache,...">
<polygon fill="none" stroke="black" points="158,-24.5 158,-54.5 295,-54.5 295,-24.5 158,-24.5"/>
<text text-anchor="start" x="166" y="-42.5" font-family="Helvetica,sans-Serif" font-size="10.00">fiftyone\pipeline\engines</text>
<text text-anchor="middle" x="226.5" y="-31.5" font-family="Helvetica,sans-Serif" font-size="10.00">\Engine</text>
</a>
</g>
</g>
<!-- Node0&#45;&gt;Node8 -->
<g id="edge29" class="edge">
<title>Node0&#45;&gt;Node8</title>
<path fill="none" stroke="midnightblue" d="M66.28,-210.33C77.56,-171.28 105.82,-97.21 155,-55.5 155.89,-54.74 156.81,-54.01 157.74,-53.3"/>
<polygon fill="midnightblue" stroke="midnightblue" points="62.8,-209.79 63.55,-220.36 69.55,-211.63 62.8,-209.79"/>
</g>
<!-- Node0&#45;&gt;Node8 -->
<g id="edge36" class="edge">
<title>Node0&#45;&gt;Node8</title>
<path fill="none" stroke="midnightblue" d="M69.97,-210.82C83.13,-175.47 110.5,-111.24 155,-73.5 165.4,-64.68 179.13,-58.89 191.71,-54.51"/>
<polygon fill="midnightblue" stroke="midnightblue" points="66.62,-209.8 66.48,-220.39 73.19,-212.19 66.62,-209.8"/>
</g>
<!-- Node9 -->
<g id="node10" class="node">
<title>Node9</title>
<g id="a_node10"><a xlink:href="classfiftyone_1_1pipeline_1_1cloudrequestengine_1_1_cloud_request_engine.html" target="_top" xlink:title=" ">
<polygon fill="none" stroke="black" points="334,-73.5 334,-103.5 528,-103.5 528,-73.5 334,-73.5"/>
<text text-anchor="start" x="342" y="-91.5" font-family="Helvetica,sans-Serif" font-size="10.00">fiftyone\pipeline\cloudrequestengine</text>
<text text-anchor="middle" x="431" y="-80.5" font-family="Helvetica,sans-Serif" font-size="10.00">\CloudRequestEngine</text>
</a>
</g>
</g>
<!-- Node8&#45;&gt;Node9 -->
<g id="edge30" class="edge">
<title>Node8&#45;&gt;Node9</title>
<path fill="none" stroke="midnightblue" d="M299.42,-56.9C321.83,-62.32 346.32,-68.25 367.98,-73.49"/>
<polygon fill="midnightblue" stroke="midnightblue" points="300.18,-53.48 289.63,-54.53 298.53,-60.29 300.18,-53.48"/>
</g>
<!-- Node10 -->
<g id="node11" class="node">
<title>Node10</title>
<g id="a_node11"><a xlink:href="classfiftyone_1_1pipeline_1_1engines_1_1_cloud_engine_base.html" target="_top" xlink:title="Intermediary between Engine and CloudEngine classes.">
<polygon fill="none" stroke="black" points="362.5,-24.5 362.5,-54.5 499.5,-54.5 499.5,-24.5 362.5,-24.5"/>
<text text-anchor="start" x="370.5" y="-42.5" font-family="Helvetica,sans-Serif" font-size="10.00">fiftyone\pipeline\engines</text>
<text text-anchor="middle" x="431" y="-31.5" font-family="Helvetica,sans-Serif" font-size="10.00">\CloudEngineBase</text>
</a>
</g>
</g>
<!-- Node8&#45;&gt;Node10 -->
<g id="edge31" class="edge">
<title>Node8&#45;&gt;Node10</title>
<path fill="none" stroke="midnightblue" d="M305.23,-32.91C324.06,-32.65 344.03,-32.71 362.35,-33.09"/>
<polygon fill="midnightblue" stroke="midnightblue" points="305.15,-29.42 295.21,-33.09 305.27,-36.41 305.15,-29.42"/>
</g>
<!-- Node8&#45;&gt;Node10 -->
<g id="edge35" class="edge">
<title>Node8&#45;&gt;Node10</title>
<path fill="none" stroke="midnightblue" d="M305.23,-46.09C324.06,-46.35 344.03,-46.29 362.35,-45.91"/>
<polygon fill="midnightblue" stroke="midnightblue" points="305.27,-42.59 295.21,-45.91 305.15,-49.58 305.27,-42.59"/>
</g>
<!-- Node11 -->
<g id="node12" class="node">
<title>Node11</title>
<g id="a_node12"><a xlink:href="classfiftyone_1_1pipeline_1_1cloudrequestengine_1_1_cloud_engine.html" target="_top" xlink:title="This is a template for all 51Degrees cloud engines.">
<polygon fill="none" stroke="black" points="564,-24.5 564,-54.5 758,-54.5 758,-24.5 564,-24.5"/>
<text text-anchor="start" x="572" y="-42.5" font-family="Helvetica,sans-Serif" font-size="10.00">fiftyone\pipeline\cloudrequestengine</text>
<text text-anchor="middle" x="661" y="-31.5" font-family="Helvetica,sans-Serif" font-size="10.00">\CloudEngine</text>
</a>
</g>
</g>
<!-- Node10&#45;&gt;Node11 -->
<g id="edge32" class="edge">
<title>Node10&#45;&gt;Node11</title>
<path fill="none" stroke="midnightblue" d="M509.85,-39.5C527.2,-39.5 545.79,-39.5 563.78,-39.5"/>
<polygon fill="midnightblue" stroke="midnightblue" points="509.79,-36 499.79,-39.5 509.79,-43 509.79,-36"/>
</g>
<!-- Node12 -->
<g id="node13" class="node">
<title>Node12</title>
<g id="a_node13"><a xlink:href="classfiftyone_1_1pipeline_1_1devicedetection_1_1_device_detection_cloud.html" target="_top" xlink:title=" ">
<polygon fill="none" stroke="black" points="794,-49.5 794,-79.5 970,-79.5 970,-49.5 794,-49.5"/>
<text text-anchor="start" x="802" y="-67.5" font-family="Helvetica,sans-Serif" font-size="10.00">fiftyone\pipeline\devicedetection</text>
<text text-anchor="middle" x="882" y="-56.5" font-family="Helvetica,sans-Serif" font-size="10.00">\DeviceDetectionCloud</text>
</a>
</g>
</g>
<!-- Node11&#45;&gt;Node12 -->
<g id="edge33" class="edge">
<title>Node11&#45;&gt;Node12</title>
<path fill="none" stroke="midnightblue" d="M768.18,-51.62C776.83,-52.61 785.5,-53.6 793.98,-54.57"/>
<polygon fill="midnightblue" stroke="midnightblue" points="768.39,-48.12 758.06,-50.47 767.6,-55.08 768.39,-48.12"/>
</g>
<!-- Node13 -->
<g id="node14" class="node">
<title>Node13</title>
<g id="a_node14"><a xlink:href="classfiftyone_1_1pipeline_1_1devicedetection_1_1_hardware_profile_cloud.html" target="_top" xlink:title=" ">
<polygon fill="none" stroke="black" points="794,-0.5 794,-30.5 970,-30.5 970,-0.5 794,-0.5"/>
<text text-anchor="start" x="802" y="-18.5" font-family="Helvetica,sans-Serif" font-size="10.00">fiftyone\pipeline\devicedetection</text>
<text text-anchor="middle" x="882" y="-7.5" font-family="Helvetica,sans-Serif" font-size="10.00">\HardwareProfileCloud</text>
</a>
</g>
</g>
<!-- Node11&#45;&gt;Node13 -->
<g id="edge34" class="edge">
<title>Node11&#45;&gt;Node13</title>
<path fill="none" stroke="midnightblue" d="M768.18,-27.86C776.83,-26.92 785.5,-25.97 793.98,-25.04"/>
<polygon fill="midnightblue" stroke="midnightblue" points="767.62,-24.4 758.06,-28.97 768.38,-31.36 767.62,-24.4"/>
</g>
</g>
</svg>
