<?xml version="1.0" encoding="UTF-8" standalone="no"?>
<!DOCTYPE svg PUBLIC "-//W3C//DTD SVG 1.1//EN"
 "http://www.w3.org/Graphics/SVG/1.1/DTD/svg11.dtd">
<!-- Generated by graphviz version 2.43.0 (0)
 -->
<!-- Title: fiftyone\pipeline\core\BasicListEvidenceKeyFilter Pages: 1 -->
<svg width="158pt" height="106pt"
 viewBox="0.00 0.00 158.00 106.00" xmlns="http://www.w3.org/2000/svg" xmlns:xlink="http://www.w3.org/1999/xlink">
<g id="graph0" class="graph" transform="scale(1 1) rotate(0) translate(4 102)">
<title>fiftyone\pipeline\core\BasicListEvidenceKeyFilter</title>
<!-- Node0 -->
<g id="node1" class="node">
<title>Node0</title>
<g id="a_node1"><a xlink:title="An instance of EvidenceKeyFilter that uses a simple array of keys Evidence not using these keys is fi...">
<polygon fill="#bfbfbf" stroke="black" points="0,-0.5 0,-30.5 150,-30.5 150,-0.5 0,-0.5"/>
<text text-anchor="start" x="8" y="-18.5" font-family="Helvetica,sans-Serif" font-size="10.00">fiftyone\pipeline\core</text>
<text text-anchor="middle" x="75" y="-7.5" font-family="Helvetica,sans-Serif" font-size="10.00">\BasicListEvidenceKeyFilter</text>
</a>
</g>
</g>
<!-- Node1 -->
<g id="node2" class="node">
<title>Node1</title>
<g id="a_node2"><a xlink:href="classfiftyone_1_1pipeline_1_1core_1_1_evidence_key_filter.html" target="_top" xlink:title="An evidence key filter is added to a FlowElement It tells the Pipeline which evidence it is intereste...">
<polygon fill="none" stroke="black" points="15.5,-67.5 15.5,-97.5 134.5,-97.5 134.5,-67.5 15.5,-67.5"/>
<text text-anchor="start" x="23.5" y="-85.5" font-family="Helvetica,sans-Serif" font-size="10.00">fiftyone\pipeline\core</text>
<text text-anchor="middle" x="75" y="-74.5" font-family="Helvetica,sans-Serif" font-size="10.00">\EvidenceKeyFilter</text>
</a>
</g>
</g>
<!-- Node1&#45;&gt;Node0 -->
<g id="edge1" class="edge">
<title>Node1&#45;&gt;Node0</title>
<path fill="none" stroke="midnightblue" d="M61.91,-57.4C61.01,-48.37 61.59,-38.41 63.65,-30.58"/>
<polygon fill="midnightblue" stroke="midnightblue" points="58.49,-58.14 63.64,-67.4 65.38,-56.94 58.49,-58.14"/>
</g>
<!-- Node1&#45;&gt;Node0 -->
<g id="edge2" class="edge">
<title>Node1&#45;&gt;Node0</title>
<path fill="none" stroke="midnightblue" d="M75,-57.11C75,-48.15 75,-38.32 75,-30.58"/>
<polygon fill="midnightblue" stroke="midnightblue" points="71.5,-57.4 75,-67.4 78.5,-57.4 71.5,-57.4"/>
</g>
<!-- Node1&#45;&gt;Node0 -->
<g id="edge3" class="edge">
<title>Node1&#45;&gt;Node0</title>
<path fill="none" stroke="midnightblue" d="M88.09,-57.4C88.99,-48.37 88.41,-38.41 86.35,-30.58"/>
<polygon fill="midnightblue" stroke="midnightblue" points="84.62,-56.94 86.36,-67.4 91.51,-58.14 84.62,-56.94"/>
</g>
</g>
</svg>
