<?xml version="1.0" encoding="UTF-8" standalone="no"?>
<!DOCTYPE svg PUBLIC "-//W3C//DTD SVG 1.1//EN"
 "http://www.w3.org/Graphics/SVG/1.1/DTD/svg11.dtd">
<!-- Generated by graphviz version 2.43.0 (0)
 -->
<!-- Title: fiftyone\pipeline\cloudrequestengine\CloudEngine Pages: 1 -->
<svg width="915pt" height="88pt"
 viewBox="0.00 0.00 915.00 88.00" xmlns="http://www.w3.org/2000/svg" xmlns:xlink="http://www.w3.org/1999/xlink">
<g id="graph0" class="graph" transform="scale(1 1) rotate(0) translate(4 84)">
<title>fiftyone\pipeline\cloudrequestengine\CloudEngine</title>
<!-- Node0 -->
<g id="node1" class="node">
<title>Node0</title>
<g id="a_node1"><a xlink:title="This is a template for all 51Degrees cloud engines.">
<polygon fill="#bfbfbf" stroke="black" points="501,-24.5 501,-54.5 695,-54.5 695,-24.5 501,-24.5"/>
<text text-anchor="start" x="509" y="-42.5" font-family="Helvetica,sans-Serif" font-size="10.00">fiftyone\pipeline\cloudrequestengine</text>
<text text-anchor="middle" x="598" y="-31.5" font-family="Helvetica,sans-Serif" font-size="10.00">\CloudEngine</text>
</a>
</g>
</g>
<!-- Node4 -->
<g id="node5" class="node">
<title>Node4</title>
<g id="a_node5"><a xlink:href="classfiftyone_1_1pipeline_1_1devicedetection_1_1_device_detection_cloud.html" target="_top" xlink:title=" ">
<polygon fill="none" stroke="black" points="731,-49.5 731,-79.5 907,-79.5 907,-49.5 731,-49.5"/>
<text text-anchor="start" x="739" y="-67.5" font-family="Helvetica,sans-Serif" font-size="10.00">fiftyone\pipeline\devicedetection</text>
<text text-anchor="middle" x="819" y="-56.5" font-family="Helvetica,sans-Serif" font-size="10.00">\DeviceDetectionCloud</text>
</a>
</g>
</g>
<!-- Node0&#45;&gt;Node4 -->
<g id="edge6" class="edge">
<title>Node0&#45;&gt;Node4</title>
<path fill="none" stroke="midnightblue" d="M705.18,-51.62C713.83,-52.61 722.5,-53.6 730.98,-54.57"/>
<polygon fill="midnightblue" stroke="midnightblue" points="705.39,-48.12 695.06,-50.47 704.6,-55.08 705.39,-48.12"/>
</g>
<!-- Node5 -->
<g id="node6" class="node">
<title>Node5</title>
<g id="a_node6"><a xlink:href="classfiftyone_1_1pipeline_1_1devicedetection_1_1_hardware_profile_cloud.html" target="_top" xlink:title=" ">
<polygon fill="none" stroke="black" points="731,-0.5 731,-30.5 907,-30.5 907,-0.5 731,-0.5"/>
<text text-anchor="start" x="739" y="-18.5" font-family="Helvetica,sans-Serif" font-size="10.00">fiftyone\pipeline\devicedetection</text>
<text text-anchor="middle" x="819" y="-7.5" font-family="Helvetica,sans-Serif" font-size="10.00">\HardwareProfileCloud</text>
</a>
</g>
</g>
<!-- Node0&#45;&gt;Node5 -->
<g id="edge7" class="edge">
<title>Node0&#45;&gt;Node5</title>
<path fill="none" stroke="midnightblue" d="M705.18,-27.86C713.83,-26.92 722.5,-25.97 730.98,-25.04"/>
<polygon fill="midnightblue" stroke="midnightblue" points="704.62,-24.4 695.06,-28.97 705.38,-31.36 704.62,-24.4"/>
</g>
<!-- Node1 -->
<g id="node2" class="node">
<title>Node1</title>
<g id="a_node2"><a xlink:href="classfiftyone_1_1pipeline_1_1engines_1_1_cloud_engine_base.html" target="_top" xlink:title="Intermediary between Engine and CloudEngine classes.">
<polygon fill="none" stroke="black" points="328,-24.5 328,-54.5 465,-54.5 465,-24.5 328,-24.5"/>
<text text-anchor="start" x="336" y="-42.5" font-family="Helvetica,sans-Serif" font-size="10.00">fiftyone\pipeline\engines</text>
<text text-anchor="middle" x="396.5" y="-31.5" font-family="Helvetica,sans-Serif" font-size="10.00">\CloudEngineBase</text>
</a>
</g>
</g>
<!-- Node1&#45;&gt;Node0 -->
<g id="edge1" class="edge">
<title>Node1&#45;&gt;Node0</title>
<path fill="none" stroke="midnightblue" d="M475.18,-39.5C483.6,-39.5 492.24,-39.5 500.85,-39.5"/>
<polygon fill="midnightblue" stroke="midnightblue" points="475.04,-36 465.04,-39.5 475.04,-43 475.04,-36"/>
</g>
<!-- Node2 -->
<g id="node3" class="node">
<title>Node2</title>
<g id="a_node3"><a xlink:href="classfiftyone_1_1pipeline_1_1engines_1_1_engine.html" target="_top" xlink:title="An engine is an extension of the Pipeline Core flowElement class It allows for a cache,...">
<polygon fill="none" stroke="black" points="155,-24.5 155,-54.5 292,-54.5 292,-24.5 155,-24.5"/>
<text text-anchor="start" x="163" y="-42.5" font-family="Helvetica,sans-Serif" font-size="10.00">fiftyone\pipeline\engines</text>
<text text-anchor="middle" x="223.5" y="-31.5" font-family="Helvetica,sans-Serif" font-size="10.00">\Engine</text>
</a>
</g>
</g>
<!-- Node2&#45;&gt;Node1 -->
<g id="edge2" class="edge">
<title>Node2&#45;&gt;Node1</title>
<path fill="none" stroke="midnightblue" d="M302.1,-32.78C310.69,-32.72 319.39,-32.76 327.85,-32.88"/>
<polygon fill="midnightblue" stroke="midnightblue" points="302.05,-29.28 292.08,-32.88 302.12,-36.28 302.05,-29.28"/>
</g>
<!-- Node2&#45;&gt;Node1 -->
<g id="edge5" class="edge">
<title>Node2&#45;&gt;Node1</title>
<path fill="none" stroke="midnightblue" d="M302.1,-46.22C310.69,-46.28 319.39,-46.24 327.85,-46.12"/>
<polygon fill="midnightblue" stroke="midnightblue" points="302.12,-42.72 292.08,-46.12 302.05,-49.72 302.12,-42.72"/>
</g>
<!-- Node3 -->
<g id="node4" class="node">
<title>Node3</title>
<g id="a_node4"><a xlink:href="classfiftyone_1_1pipeline_1_1core_1_1_flow_element.html" target="_top" xlink:title="A FlowElement is placed inside a Pipeline It receives Evidence via a FlowData object It uses this to ...">
<polygon fill="none" stroke="black" points="0,-24.5 0,-54.5 119,-54.5 119,-24.5 0,-24.5"/>
<text text-anchor="start" x="8" y="-42.5" font-family="Helvetica,sans-Serif" font-size="10.00">fiftyone\pipeline\core</text>
<text text-anchor="middle" x="59.5" y="-31.5" font-family="Helvetica,sans-Serif" font-size="10.00">\FlowElement</text>
</a>
</g>
</g>
<!-- Node3&#45;&gt;Node2 -->
<g id="edge3" class="edge">
<title>Node3&#45;&gt;Node2</title>
<path fill="none" stroke="midnightblue" d="M129.54,-32.82C137.91,-32.72 146.46,-32.73 154.81,-32.83"/>
<polygon fill="midnightblue" stroke="midnightblue" points="129.39,-29.32 119.44,-32.98 129.5,-36.32 129.39,-29.32"/>
</g>
<!-- Node3&#45;&gt;Node2 -->
<g id="edge4" class="edge">
<title>Node3&#45;&gt;Node2</title>
<path fill="none" stroke="midnightblue" d="M129.54,-46.18C137.91,-46.28 146.46,-46.27 154.81,-46.17"/>
<polygon fill="midnightblue" stroke="midnightblue" points="129.5,-42.68 119.44,-46.02 129.39,-49.68 129.5,-42.68"/>
</g>
</g>
</svg>
