<?xml version="1.0" encoding="UTF-8" standalone="no"?>
<!DOCTYPE svg PUBLIC "-//W3C//DTD SVG 1.1//EN"
 "http://www.w3.org/Graphics/SVG/1.1/DTD/svg11.dtd">
<!-- Generated by graphviz version 2.43.0 (0)
 -->
<!-- Title: fiftyone\pipeline\core\ElementData Pages: 1 -->
<svg width="298pt" height="173pt"
 viewBox="0.00 0.00 297.50 173.00" xmlns="http://www.w3.org/2000/svg" xmlns:xlink="http://www.w3.org/1999/xlink">
<g id="graph0" class="graph" transform="scale(1 1) rotate(0) translate(4 169)">
<title>fiftyone\pipeline\core\ElementData</title>
<!-- Node0 -->
<g id="node1" class="node">
<title>Node0</title>
<g id="a_node1"><a xlink:title="Stores information created by a FlowElement based on FlowData.">
<polygon fill="#bfbfbf" stroke="black" points="7.5,-134.5 7.5,-164.5 126.5,-164.5 126.5,-134.5 7.5,-134.5"/>
<text text-anchor="start" x="15.5" y="-152.5" font-family="Helvetica,sans-Serif" font-size="10.00">fiftyone\pipeline\core</text>
<text text-anchor="middle" x="67" y="-141.5" font-family="Helvetica,sans-Serif" font-size="10.00">\ElementData</text>
</a>
</g>
</g>
<!-- Node1 -->
<g id="node2" class="node">
<title>Node1</title>
<g id="a_node2"><a xlink:href="classfiftyone_1_1pipeline_1_1core_1_1_element_data_dictionary.html" target="_top" xlink:title="An extension of ElementData with dictionary object storage / lookup.">
<polygon fill="none" stroke="black" points="0,-67.5 0,-97.5 134,-97.5 134,-67.5 0,-67.5"/>
<text text-anchor="start" x="8" y="-85.5" font-family="Helvetica,sans-Serif" font-size="10.00">fiftyone\pipeline\core</text>
<text text-anchor="middle" x="67" y="-74.5" font-family="Helvetica,sans-Serif" font-size="10.00">\ElementDataDictionary</text>
</a>
</g>
</g>
<!-- Node0&#45;&gt;Node1 -->
<g id="edge1" class="edge">
<title>Node0&#45;&gt;Node1</title>
<path fill="none" stroke="midnightblue" d="M47.41,-124.7C46,-115.59 46.85,-105.49 49.98,-97.58"/>
<polygon fill="midnightblue" stroke="midnightblue" points="44.03,-125.62 49.96,-134.4 50.8,-123.83 44.03,-125.62"/>
</g>
<!-- Node0&#45;&gt;Node1 -->
<g id="edge2" class="edge">
<title>Node0&#45;&gt;Node1</title>
<path fill="none" stroke="midnightblue" d="M60.45,-124.4C60.01,-115.37 60.3,-105.41 61.33,-97.58"/>
<polygon fill="midnightblue" stroke="midnightblue" points="56.97,-124.74 61.32,-134.4 63.94,-124.13 56.97,-124.74"/>
</g>
<!-- Node0&#45;&gt;Node1 -->
<g id="edge3" class="edge">
<title>Node0&#45;&gt;Node1</title>
<path fill="none" stroke="midnightblue" d="M73.55,-124.4C73.99,-115.37 73.7,-105.41 72.67,-97.58"/>
<polygon fill="midnightblue" stroke="midnightblue" points="70.06,-124.13 72.68,-134.4 77.03,-124.74 70.06,-124.13"/>
</g>
<!-- Node0&#45;&gt;Node1 -->
<g id="edge4" class="edge">
<title>Node0&#45;&gt;Node1</title>
<path fill="none" stroke="midnightblue" d="M86.59,-124.7C88,-115.59 87.15,-105.49 84.02,-97.58"/>
<polygon fill="midnightblue" stroke="midnightblue" points="83.2,-123.83 84.04,-134.4 89.97,-125.62 83.2,-123.83"/>
</g>
<!-- Node2 -->
<g id="node3" class="node">
<title>Node2</title>
<g id="a_node3"><a xlink:href="classfiftyone_1_1pipeline_1_1engines_1_1_aspect_data.html" target="_top" xlink:title="aspectData extends elementData by adding the option of a missing property service It also allows prop...">
<polygon fill="none" stroke="black" points="152.5,-67.5 152.5,-97.5 289.5,-97.5 289.5,-67.5 152.5,-67.5"/>
<text text-anchor="start" x="160.5" y="-85.5" font-family="Helvetica,sans-Serif" font-size="10.00">fiftyone\pipeline\engines</text>
<text text-anchor="middle" x="221" y="-74.5" font-family="Helvetica,sans-Serif" font-size="10.00">\AspectData</text>
</a>
</g>
</g>
<!-- Node0&#45;&gt;Node2 -->
<g id="edge5" class="edge">
<title>Node0&#45;&gt;Node2</title>
<path fill="none" stroke="midnightblue" d="M104.06,-130.27C127.64,-119.92 158.03,-107.15 181.97,-97.58"/>
<polygon fill="midnightblue" stroke="midnightblue" points="102.46,-127.15 94.74,-134.4 105.3,-133.55 102.46,-127.15"/>
</g>
<!-- Node0&#45;&gt;Node2 -->
<g id="edge8" class="edge">
<title>Node0&#45;&gt;Node2</title>
<path fill="none" stroke="midnightblue" d="M115.65,-130.54C141.27,-120.14 171.7,-107.24 193.32,-97.58"/>
<polygon fill="midnightblue" stroke="midnightblue" points="114.06,-127.41 106.09,-134.4 116.68,-133.9 114.06,-127.41"/>
</g>
<!-- Node3 -->
<g id="node4" class="node">
<title>Node3</title>
<g id="a_node4"><a xlink:href="classfiftyone_1_1pipeline_1_1engines_1_1_aspect_data_dictionary.html" target="_top" xlink:title="aspectData class extension that stores content as an array Similar to elementDataDictionary in the Pi...">
<polygon fill="none" stroke="black" points="152.5,-0.5 152.5,-30.5 289.5,-30.5 289.5,-0.5 152.5,-0.5"/>
<text text-anchor="start" x="160.5" y="-18.5" font-family="Helvetica,sans-Serif" font-size="10.00">fiftyone\pipeline\engines</text>
<text text-anchor="middle" x="221" y="-7.5" font-family="Helvetica,sans-Serif" font-size="10.00">\AspectDataDictionary</text>
</a>
</g>
</g>
<!-- Node2&#45;&gt;Node3 -->
<g id="edge6" class="edge">
<title>Node2&#45;&gt;Node3</title>
<path fill="none" stroke="midnightblue" d="M214.45,-57.4C214.01,-48.37 214.3,-38.41 215.33,-30.58"/>
<polygon fill="midnightblue" stroke="midnightblue" points="210.97,-57.74 215.32,-67.4 217.94,-57.13 210.97,-57.74"/>
</g>
<!-- Node2&#45;&gt;Node3 -->
<g id="edge7" class="edge">
<title>Node2&#45;&gt;Node3</title>
<path fill="none" stroke="midnightblue" d="M227.55,-57.4C227.99,-48.37 227.7,-38.41 226.67,-30.58"/>
<polygon fill="midnightblue" stroke="midnightblue" points="224.06,-57.13 226.68,-67.4 231.03,-57.74 224.06,-57.13"/>
</g>
</g>
</svg>
