<?xml version="1.0" encoding="UTF-8" standalone="no"?>
<!DOCTYPE svg PUBLIC "-//W3C//DTD SVG 1.1//EN"
 "http://www.w3.org/Graphics/SVG/1.1/DTD/svg11.dtd">
<!-- Generated by graphviz version 2.43.0 (0)
 -->
<!-- Title: fiftyone\pipeline\cloudrequestengine\CloudEngine Pages: 1 -->
<svg width="202pt" height="240pt"
 viewBox="0.00 0.00 202.00 240.00" xmlns="http://www.w3.org/2000/svg" xmlns:xlink="http://www.w3.org/1999/xlink">
<g id="graph0" class="graph" transform="scale(1 1) rotate(0) translate(4 236)">
<title>fiftyone\pipeline\cloudrequestengine\CloudEngine</title>
<!-- Node6 -->
<g id="node1" class="node">
<title>Node6</title>
<g id="a_node1"><a xlink:title="This is a template for all 51Degrees cloud engines.">
<polygon fill="#bfbfbf" stroke="black" points="0,-0.5 0,-30.5 194,-30.5 194,-0.5 0,-0.5"/>
<text text-anchor="start" x="8" y="-18.5" font-family="Helvetica,sans-Serif" font-size="10.00">fiftyone\pipeline\cloudrequestengine</text>
<text text-anchor="middle" x="97" y="-7.5" font-family="Helvetica,sans-Serif" font-size="10.00">\CloudEngine</text>
</a>
</g>
</g>
<!-- Node7 -->
<g id="node2" class="node">
<title>Node7</title>
<g id="a_node2"><a xlink:href="classfiftyone_1_1pipeline_1_1engines_1_1_cloud_engine_base.html" target="_top" xlink:title="Intermediary between Engine and CloudEngine classes.">
<polygon fill="none" stroke="black" points="28.5,-67.5 28.5,-97.5 165.5,-97.5 165.5,-67.5 28.5,-67.5"/>
<text text-anchor="start" x="36.5" y="-85.5" font-family="Helvetica,sans-Serif" font-size="10.00">fiftyone\pipeline\engines</text>
<text text-anchor="middle" x="97" y="-74.5" font-family="Helvetica,sans-Serif" font-size="10.00">\CloudEngineBase</text>
</a>
</g>
</g>
<!-- Node7&#45;&gt;Node6 -->
<g id="edge1" class="edge">
<title>Node7&#45;&gt;Node6</title>
<path fill="none" stroke="midnightblue" d="M97,-57.11C97,-48.15 97,-38.32 97,-30.58"/>
<polygon fill="midnightblue" stroke="midnightblue" points="93.5,-57.4 97,-67.4 100.5,-57.4 93.5,-57.4"/>
</g>
<!-- Node8 -->
<g id="node3" class="node">
<title>Node8</title>
<g id="a_node3"><a xlink:href="classfiftyone_1_1pipeline_1_1engines_1_1_engine.html" target="_top" xlink:title="An engine is an extension of the Pipeline Core flowElement class It allows for a cache,...">
<polygon fill="none" stroke="black" points="28.5,-134.5 28.5,-164.5 165.5,-164.5 165.5,-134.5 28.5,-134.5"/>
<text text-anchor="start" x="36.5" y="-152.5" font-family="Helvetica,sans-Serif" font-size="10.00">fiftyone\pipeline\engines</text>
<text text-anchor="middle" x="97" y="-141.5" font-family="Helvetica,sans-Serif" font-size="10.00">\Engine</text>
</a>
</g>
</g>
<!-- Node8&#45;&gt;Node7 -->
<g id="edge2" class="edge">
<title>Node8&#45;&gt;Node7</title>
<path fill="none" stroke="midnightblue" d="M90.45,-124.4C90.01,-115.37 90.3,-105.41 91.33,-97.58"/>
<polygon fill="midnightblue" stroke="midnightblue" points="86.97,-124.74 91.32,-134.4 93.94,-124.13 86.97,-124.74"/>
</g>
<!-- Node8&#45;&gt;Node7 -->
<g id="edge5" class="edge">
<title>Node8&#45;&gt;Node7</title>
<path fill="none" stroke="midnightblue" d="M103.55,-124.4C103.99,-115.37 103.7,-105.41 102.67,-97.58"/>
<polygon fill="midnightblue" stroke="midnightblue" points="100.06,-124.13 102.68,-134.4 107.03,-124.74 100.06,-124.13"/>
</g>
<!-- Node9 -->
<g id="node4" class="node">
<title>Node9</title>
<g id="a_node4"><a xlink:href="classfiftyone_1_1pipeline_1_1core_1_1_flow_element.html" target="_top" xlink:title="A FlowElement is placed inside a Pipeline It receives Evidence via a FlowData object It uses this to ...">
<polygon fill="none" stroke="black" points="37.5,-201.5 37.5,-231.5 156.5,-231.5 156.5,-201.5 37.5,-201.5"/>
<text text-anchor="start" x="45.5" y="-219.5" font-family="Helvetica,sans-Serif" font-size="10.00">fiftyone\pipeline\core</text>
<text text-anchor="middle" x="97" y="-208.5" font-family="Helvetica,sans-Serif" font-size="10.00">\FlowElement</text>
</a>
</g>
</g>
<!-- Node9&#45;&gt;Node8 -->
<g id="edge3" class="edge">
<title>Node9&#45;&gt;Node8</title>
<path fill="none" stroke="midnightblue" d="M90.45,-191.4C90.01,-182.37 90.3,-172.41 91.33,-164.58"/>
<polygon fill="midnightblue" stroke="midnightblue" points="86.97,-191.74 91.32,-201.4 93.94,-191.13 86.97,-191.74"/>
</g>
<!-- Node9&#45;&gt;Node8 -->
<g id="edge4" class="edge">
<title>Node9&#45;&gt;Node8</title>
<path fill="none" stroke="midnightblue" d="M103.55,-191.4C103.99,-182.37 103.7,-172.41 102.67,-164.58"/>
<polygon fill="midnightblue" stroke="midnightblue" points="100.06,-191.13 102.68,-201.4 107.03,-191.74 100.06,-191.13"/>
</g>
</g>
</svg>
