<?xml version="1.0" encoding="UTF-8" standalone="no"?>
<!DOCTYPE svg PUBLIC "-//W3C//DTD SVG 1.1//EN"
 "http://www.w3.org/Graphics/SVG/1.1/DTD/svg11.dtd">
<!-- Generated by graphviz version 2.43.0 (0)
 -->
<!-- Title: fiftyone\pipeline\engines\Engine Pages: 1 -->
<svg width="972pt" height="112pt"
 viewBox="0.00 0.00 972.00 112.00" xmlns="http://www.w3.org/2000/svg" xmlns:xlink="http://www.w3.org/1999/xlink">
<g id="graph0" class="graph" transform="scale(1 1) rotate(0) translate(4 108)">
<title>fiftyone\pipeline\engines\Engine</title>
<!-- Node0 -->
<g id="node1" class="node">
<title>Node0</title>
<g id="a_node1"><a xlink:title="An engine is an extension of the Pipeline Core flowElement class It allows for a cache,...">
<polygon fill="#bfbfbf" stroke="black" points="155,-24.5 155,-54.5 292,-54.5 292,-24.5 155,-24.5"/>
<text text-anchor="start" x="163" y="-42.5" font-family="Helvetica,sans-Serif" font-size="10.00">fiftyone\pipeline\engines</text>
<text text-anchor="middle" x="223.5" y="-31.5" font-family="Helvetica,sans-Serif" font-size="10.00">\Engine</text>
</a>
</g>
</g>
<!-- Node2 -->
<g id="node3" class="node">
<title>Node2</title>
<g id="a_node3"><a xlink:href="classfiftyone_1_1pipeline_1_1cloudrequestengine_1_1_cloud_request_engine.html" target="_top" xlink:title=" ">
<polygon fill="none" stroke="black" points="328,-73.5 328,-103.5 522,-103.5 522,-73.5 328,-73.5"/>
<text text-anchor="start" x="336" y="-91.5" font-family="Helvetica,sans-Serif" font-size="10.00">fiftyone\pipeline\cloudrequestengine</text>
<text text-anchor="middle" x="425" y="-80.5" font-family="Helvetica,sans-Serif" font-size="10.00">\CloudRequestEngine</text>
</a>
</g>
</g>
<!-- Node0&#45;&gt;Node2 -->
<g id="edge3" class="edge">
<title>Node0&#45;&gt;Node2</title>
<path fill="none" stroke="midnightblue" d="M295.66,-56.98C317.64,-62.38 341.66,-68.28 362.9,-73.49"/>
<polygon fill="midnightblue" stroke="midnightblue" points="296.26,-53.52 285.71,-54.53 294.59,-60.32 296.26,-53.52"/>
</g>
<!-- Node3 -->
<g id="node4" class="node">
<title>Node3</title>
<g id="a_node4"><a xlink:href="classfiftyone_1_1pipeline_1_1engines_1_1_cloud_engine_base.html" target="_top" xlink:title="Intermediary between Engine and CloudEngine classes.">
<polygon fill="none" stroke="black" points="356.5,-24.5 356.5,-54.5 493.5,-54.5 493.5,-24.5 356.5,-24.5"/>
<text text-anchor="start" x="364.5" y="-42.5" font-family="Helvetica,sans-Serif" font-size="10.00">fiftyone\pipeline\engines</text>
<text text-anchor="middle" x="425" y="-31.5" font-family="Helvetica,sans-Serif" font-size="10.00">\CloudEngineBase</text>
</a>
</g>
</g>
<!-- Node0&#45;&gt;Node3 -->
<g id="edge4" class="edge">
<title>Node0&#45;&gt;Node3</title>
<path fill="none" stroke="midnightblue" d="M302.37,-32.9C320.14,-32.66 338.88,-32.71 356.19,-33.07"/>
<polygon fill="midnightblue" stroke="midnightblue" points="301.98,-29.4 292.04,-33.07 302.1,-36.4 301.98,-29.4"/>
</g>
<!-- Node0&#45;&gt;Node3 -->
<g id="edge8" class="edge">
<title>Node0&#45;&gt;Node3</title>
<path fill="none" stroke="midnightblue" d="M302.37,-46.1C320.14,-46.34 338.88,-46.29 356.19,-45.93"/>
<polygon fill="midnightblue" stroke="midnightblue" points="302.1,-42.6 292.04,-45.93 301.98,-49.6 302.1,-42.6"/>
</g>
<!-- Node1 -->
<g id="node2" class="node">
<title>Node1</title>
<g id="a_node2"><a xlink:href="classfiftyone_1_1pipeline_1_1core_1_1_flow_element.html" target="_top" xlink:title="A FlowElement is placed inside a Pipeline It receives Evidence via a FlowData object It uses this to ...">
<polygon fill="none" stroke="black" points="0,-24.5 0,-54.5 119,-54.5 119,-24.5 0,-24.5"/>
<text text-anchor="start" x="8" y="-42.5" font-family="Helvetica,sans-Serif" font-size="10.00">fiftyone\pipeline\core</text>
<text text-anchor="middle" x="59.5" y="-31.5" font-family="Helvetica,sans-Serif" font-size="10.00">\FlowElement</text>
</a>
</g>
</g>
<!-- Node1&#45;&gt;Node0 -->
<g id="edge1" class="edge">
<title>Node1&#45;&gt;Node0</title>
<path fill="none" stroke="midnightblue" d="M129.54,-32.82C137.91,-32.72 146.46,-32.73 154.81,-32.83"/>
<polygon fill="midnightblue" stroke="midnightblue" points="129.39,-29.32 119.44,-32.98 129.5,-36.32 129.39,-29.32"/>
</g>
<!-- Node1&#45;&gt;Node0 -->
<g id="edge2" class="edge">
<title>Node1&#45;&gt;Node0</title>
<path fill="none" stroke="midnightblue" d="M129.54,-46.18C137.91,-46.28 146.46,-46.27 154.81,-46.17"/>
<polygon fill="midnightblue" stroke="midnightblue" points="129.5,-42.68 119.44,-46.02 129.39,-49.68 129.5,-42.68"/>
</g>
<!-- Node4 -->
<g id="node5" class="node">
<title>Node4</title>
<g id="a_node5"><a xlink:href="classfiftyone_1_1pipeline_1_1cloudrequestengine_1_1_cloud_engine.html" target="_top" xlink:title="This is a template for all 51Degrees cloud engines.">
<polygon fill="none" stroke="black" points="558,-24.5 558,-54.5 752,-54.5 752,-24.5 558,-24.5"/>
<text text-anchor="start" x="566" y="-42.5" font-family="Helvetica,sans-Serif" font-size="10.00">fiftyone\pipeline\cloudrequestengine</text>
<text text-anchor="middle" x="655" y="-31.5" font-family="Helvetica,sans-Serif" font-size="10.00">\CloudEngine</text>
</a>
</g>
</g>
<!-- Node3&#45;&gt;Node4 -->
<g id="edge5" class="edge">
<title>Node3&#45;&gt;Node4</title>
<path fill="none" stroke="midnightblue" d="M503.85,-39.5C521.2,-39.5 539.79,-39.5 557.78,-39.5"/>
<polygon fill="midnightblue" stroke="midnightblue" points="503.79,-36 493.79,-39.5 503.79,-43 503.79,-36"/>
</g>
<!-- Node5 -->
<g id="node6" class="node">
<title>Node5</title>
<g id="a_node6"><a xlink:href="classfiftyone_1_1pipeline_1_1devicedetection_1_1_device_detection_cloud.html" target="_top" xlink:title=" ">
<polygon fill="none" stroke="black" points="788,-49.5 788,-79.5 964,-79.5 964,-49.5 788,-49.5"/>
<text text-anchor="start" x="796" y="-67.5" font-family="Helvetica,sans-Serif" font-size="10.00">fiftyone\pipeline\devicedetection</text>
<text text-anchor="middle" x="876" y="-56.5" font-family="Helvetica,sans-Serif" font-size="10.00">\DeviceDetectionCloud</text>
</a>
</g>
</g>
<!-- Node4&#45;&gt;Node5 -->
<g id="edge6" class="edge">
<title>Node4&#45;&gt;Node5</title>
<path fill="none" stroke="midnightblue" d="M762.18,-51.62C770.83,-52.61 779.5,-53.6 787.98,-54.57"/>
<polygon fill="midnightblue" stroke="midnightblue" points="762.39,-48.12 752.06,-50.47 761.6,-55.08 762.39,-48.12"/>
</g>
<!-- Node6 -->
<g id="node7" class="node">
<title>Node6</title>
<g id="a_node7"><a xlink:href="classfiftyone_1_1pipeline_1_1devicedetection_1_1_hardware_profile_cloud.html" target="_top" xlink:title=" ">
<polygon fill="none" stroke="black" points="788,-0.5 788,-30.5 964,-30.5 964,-0.5 788,-0.5"/>
<text text-anchor="start" x="796" y="-18.5" font-family="Helvetica,sans-Serif" font-size="10.00">fiftyone\pipeline\devicedetection</text>
<text text-anchor="middle" x="876" y="-7.5" font-family="Helvetica,sans-Serif" font-size="10.00">\HardwareProfileCloud</text>
</a>
</g>
</g>
<!-- Node4&#45;&gt;Node6 -->
<g id="edge7" class="edge">
<title>Node4&#45;&gt;Node6</title>
<path fill="none" stroke="midnightblue" d="M762.18,-27.86C770.83,-26.92 779.5,-25.97 787.98,-25.04"/>
<polygon fill="midnightblue" stroke="midnightblue" points="761.62,-24.4 752.06,-28.97 762.38,-31.36 761.62,-24.4"/>
</g>
</g>
</svg>
