<?xml version="1.0" encoding="UTF-8" standalone="no"?>
<!DOCTYPE svg PUBLIC "-//W3C//DTD SVG 1.1//EN"
 "http://www.w3.org/Graphics/SVG/1.1/DTD/svg11.dtd">
<!-- Generated by graphviz version 2.43.0 (0)
 -->
<!-- Title: fiftyone\pipeline\engines\DataKeyedCache Pages: 1 -->
<svg width="300pt" height="106pt"
 viewBox="0.00 0.00 300.00 106.00" xmlns="http://www.w3.org/2000/svg" xmlns:xlink="http://www.w3.org/1999/xlink">
<g id="graph0" class="graph" transform="scale(1 1) rotate(0) translate(4 102)">
<title>fiftyone\pipeline\engines\DataKeyedCache</title>
<!-- Node0 -->
<g id="node1" class="node">
<title>Node0</title>
<g id="a_node1"><a xlink:title="A simple cache class which has a get and set method Can be added to an engine to cache its results fo...">
<polygon fill="#bfbfbf" stroke="black" points="77,-67.5 77,-97.5 214,-97.5 214,-67.5 77,-67.5"/>
<text text-anchor="start" x="85" y="-85.5" font-family="Helvetica,sans-Serif" font-size="10.00">fiftyone\pipeline\engines</text>
<text text-anchor="middle" x="145.5" y="-74.5" font-family="Helvetica,sans-Serif" font-size="10.00">\DataKeyedCache</text>
</a>
</g>
</g>
<!-- Node1 -->
<g id="node2" class="node">
<title>Node1</title>
<g id="a_node2"><a xlink:href="classfiftyone_1_1pipeline_1_1engines_1_1_session_cache.html" target="_top" xlink:title="An extension of the cache class that stores a cache in a user&#39;s session if PHP sessions are active.">
<polygon fill="none" stroke="black" points="0,-0.5 0,-30.5 137,-30.5 137,-0.5 0,-0.5"/>
<text text-anchor="start" x="8" y="-18.5" font-family="Helvetica,sans-Serif" font-size="10.00">fiftyone\pipeline\engines</text>
<text text-anchor="middle" x="68.5" y="-7.5" font-family="Helvetica,sans-Serif" font-size="10.00">\SessionCache</text>
</a>
</g>
</g>
<!-- Node0&#45;&gt;Node1 -->
<g id="edge1" class="edge">
<title>Node0&#45;&gt;Node1</title>
<path fill="none" stroke="midnightblue" d="M115.1,-61.17C102.58,-51.23 88.91,-39.51 79.5,-30.58"/>
<polygon fill="midnightblue" stroke="midnightblue" points="113.07,-64.02 123.11,-67.4 117.37,-58.49 113.07,-64.02"/>
</g>
<!-- Node0&#45;&gt;Node1 -->
<g id="edge2" class="edge">
<title>Node0&#45;&gt;Node1</title>
<path fill="none" stroke="midnightblue" d="M127.09,-60.6C116.17,-50.78 102.39,-39.34 90.85,-30.58"/>
<polygon fill="midnightblue" stroke="midnightblue" points="124.74,-63.19 134.47,-67.4 129.49,-58.05 124.74,-63.19"/>
</g>
<!-- Node2 -->
<g id="node3" class="node">
<title>Node2</title>
<g id="a_node3"><a xlink:href="classfiftyone_1_1pipeline_1_1engines_1_1_tracker.html" target="_top" xlink:title="The tracker class extends the cache class with a track method that checks if a key is in the cache an...">
<polygon fill="none" stroke="black" points="155,-0.5 155,-30.5 292,-30.5 292,-0.5 155,-0.5"/>
<text text-anchor="start" x="163" y="-18.5" font-family="Helvetica,sans-Serif" font-size="10.00">fiftyone\pipeline\engines</text>
<text text-anchor="middle" x="223.5" y="-7.5" font-family="Helvetica,sans-Serif" font-size="10.00">\Tracker</text>
</a>
</g>
</g>
<!-- Node0&#45;&gt;Node2 -->
<g id="edge3" class="edge">
<title>Node0&#45;&gt;Node2</title>
<path fill="none" stroke="midnightblue" d="M164.23,-60.6C175.31,-50.78 189.26,-39.34 200.93,-30.58"/>
<polygon fill="midnightblue" stroke="midnightblue" points="161.8,-58.08 156.75,-67.4 166.5,-63.26 161.8,-58.08"/>
</g>
<!-- Node0&#45;&gt;Node2 -->
<g id="edge4" class="edge">
<title>Node0&#45;&gt;Node2</title>
<path fill="none" stroke="midnightblue" d="M176.21,-61.17C188.89,-51.23 202.73,-39.51 212.28,-30.58"/>
<polygon fill="midnightblue" stroke="midnightblue" points="173.9,-58.53 168.1,-67.4 178.17,-64.08 173.9,-58.53"/>
</g>
</g>
</svg>
