<?xml version="1.0" encoding="UTF-8" standalone="no"?>
<!DOCTYPE svg PUBLIC "-//W3C//DTD SVG 1.1//EN"
 "http://www.w3.org/Graphics/SVG/1.1/DTD/svg11.dtd">
<!-- Generated by graphviz version 2.43.0 (0)
 -->
<!-- Title: ArrayLogger Pages: 1 -->
<svg width="127pt" height="95pt"
 viewBox="0.00 0.00 127.00 95.00" xmlns="http://www.w3.org/2000/svg" xmlns:xlink="http://www.w3.org/1999/xlink">
<g id="graph0" class="graph" transform="scale(1 1) rotate(0) translate(4 91)">
<title>ArrayLogger</title>
<!-- Node2 -->
<g id="node1" class="node">
<title>Node2</title>
<g id="a_node1"><a xlink:title=" ">
<polygon fill="#bfbfbf" stroke="black" points="21.5,-0.5 21.5,-19.5 97.5,-19.5 97.5,-0.5 21.5,-0.5"/>
<text text-anchor="middle" x="59.5" y="-7.5" font-family="Helvetica,sans-Serif" font-size="10.00">ArrayLogger</text>
</a>
</g>
</g>
<!-- Node3 -->
<g id="node2" class="node">
<title>Node3</title>
<g id="a_node2"><a xlink:href="classfiftyone_1_1pipeline_1_1core_1_1_logger.html" target="_top" xlink:title="Logging for a Pipeline.">
<polygon fill="none" stroke="black" points="0,-56.5 0,-86.5 119,-86.5 119,-56.5 0,-56.5"/>
<text text-anchor="start" x="8" y="-74.5" font-family="Helvetica,sans-Serif" font-size="10.00">fiftyone\pipeline\core</text>
<text text-anchor="middle" x="59.5" y="-63.5" font-family="Helvetica,sans-Serif" font-size="10.00">\Logger</text>
</a>
</g>
</g>
<!-- Node3&#45;&gt;Node2 -->
<g id="edge1" class="edge">
<title>Node3&#45;&gt;Node2</title>
<path fill="none" stroke="midnightblue" d="M46.21,-46.29C45.49,-36.86 46.63,-26.65 49.64,-19.66"/>
<polygon fill="midnightblue" stroke="midnightblue" points="42.79,-47.07 47.82,-56.4 49.7,-45.97 42.79,-47.07"/>
</g>
<!-- Node3&#45;&gt;Node2 -->
<g id="edge2" class="edge">
<title>Node3&#45;&gt;Node2</title>
<path fill="none" stroke="midnightblue" d="M59.5,-46.29C59.5,-36.86 59.5,-26.65 59.5,-19.66"/>
<polygon fill="midnightblue" stroke="midnightblue" points="56,-46.4 59.5,-56.4 63,-46.4 56,-46.4"/>
</g>
<!-- Node3&#45;&gt;Node2 -->
<g id="edge3" class="edge">
<title>Node3&#45;&gt;Node2</title>
<path fill="none" stroke="midnightblue" d="M72.79,-46.29C73.51,-36.86 72.37,-26.65 69.36,-19.66"/>
<polygon fill="midnightblue" stroke="midnightblue" points="69.3,-45.97 71.18,-56.4 76.21,-47.07 69.3,-45.97"/>
</g>
</g>
</svg>
