<?xml version="1.0" encoding="UTF-8" standalone="no"?>
<!DOCTYPE svg PUBLIC "-//W3C//DTD SVG 1.1//EN"
 "http://www.w3.org/Graphics/SVG/1.1/DTD/svg11.dtd">
<!-- Generated by graphviz version 2.43.0 (0)
 -->
<!-- Title: fiftyone\pipeline\core\FlowElement Pages: 1 -->
<svg width="978pt" height="376pt"
 viewBox="0.00 0.00 978.00 376.24" xmlns="http://www.w3.org/2000/svg" xmlns:xlink="http://www.w3.org/1999/xlink">
<g id="graph0" class="graph" transform="scale(1 1) rotate(0) translate(4 372.24)">
<title>fiftyone\pipeline\core\FlowElement</title>
<!-- Node0 -->
<g id="node1" class="node">
<title>Node0</title>
<g id="a_node1"><a xlink:title="A FlowElement is placed inside a Pipeline It receives Evidence via a FlowData object It uses this to ...">
<polygon fill="#bfbfbf" stroke="black" points="0,-220.5 0,-250.5 119,-250.5 119,-220.5 0,-220.5"/>
<text text-anchor="start" x="8" y="-238.5" font-family="Helvetica,sans-Serif" font-size="10.00">fiftyone\pipeline\core</text>
<text text-anchor="middle" x="59.5" y="-227.5" font-family="Helvetica,sans-Serif" font-size="10.00">\FlowElement</text>
</a>
</g>
</g>
<!-- Node1 -->
<g id="node2" class="node">
<title>Node1</title>
<g id="a_node2"><a xlink:href="class_astrology_flow_element.html" target="_top" xlink:title="[class] [declaration]">
<polygon fill="none" stroke="black" points="163,-346 163,-365 290,-365 290,-346 163,-346"/>
<text text-anchor="middle" x="226.5" y="-353" font-family="Helvetica,sans-Serif" font-size="10.00">AstrologyFlowElement</text>
</a>
</g>
</g>
<!-- Node0&#45;&gt;Node1 -->
<g id="edge1" class="edge">
<title>Node0&#45;&gt;Node1</title>
<path fill="none" stroke="midnightblue" d="M87.86,-258.24C104.91,-277.3 128.59,-302.63 155,-318.5 176.95,-331.69 208.15,-335.89 220.34,-345.92"/>
<polygon fill="midnightblue" stroke="midnightblue" points="90.47,-255.9 81.2,-250.76 85.24,-260.55 90.47,-255.9"/>
</g>
<!-- Node0&#45;&gt;Node1 -->
<g id="edge2" class="edge">
<title>Node0&#45;&gt;Node1</title>
<path fill="none" stroke="midnightblue" d="M76.35,-258.9C93.21,-281.99 121.96,-316.65 155,-336.5 161.41,-340.35 168.61,-343.44 175.9,-345.9"/>
<polygon fill="midnightblue" stroke="midnightblue" points="79.14,-256.78 70.49,-250.66 73.44,-260.84 79.14,-256.78"/>
</g>
<!-- Node0&#45;&gt;Node1 -->
<g id="edge3" class="edge">
<title>Node0&#45;&gt;Node1</title>
<path fill="none" stroke="midnightblue" d="M69.25,-259.97C84.18,-288.62 116.72,-331.5 155,-354.5 176.08,-367.16 205.7,-371.55 218.81,-365.09"/>
<polygon fill="midnightblue" stroke="midnightblue" points="72.36,-258.36 64.88,-250.85 66.05,-261.39 72.36,-258.36"/>
</g>
<!-- Node2 -->
<g id="node3" class="node">
<title>Node2</title>
<g id="a_node3"><a xlink:href="class_example_flow_element_a.html" target="_top" xlink:title=" ">
<polygon fill="none" stroke="black" points="161.5,-308 161.5,-327 291.5,-327 291.5,-308 161.5,-308"/>
<text text-anchor="middle" x="226.5" y="-315" font-family="Helvetica,sans-Serif" font-size="10.00">ExampleFlowElementA</text>
</a>
</g>
</g>
<!-- Node0&#45;&gt;Node2 -->
<g id="edge4" class="edge">
<title>Node0&#45;&gt;Node2</title>
<path fill="none" stroke="midnightblue" d="M110.89,-256.08C124.67,-264.6 139.97,-273.69 155,-280.5 178.55,-291.18 209.34,-296.9 220.87,-307.9"/>
<polygon fill="midnightblue" stroke="midnightblue" points="112.4,-252.9 102.06,-250.59 108.71,-258.84 112.4,-252.9"/>
</g>
<!-- Node0&#45;&gt;Node2 -->
<g id="edge5" class="edge">
<title>Node0&#45;&gt;Node2</title>
<path fill="none" stroke="midnightblue" d="M87.66,-257.08C105.83,-270.61 130.77,-287.52 155,-298.5 163.2,-302.22 172.27,-305.33 181.1,-307.9"/>
<polygon fill="midnightblue" stroke="midnightblue" points="89.4,-254 79.32,-250.74 85.17,-259.58 89.4,-254"/>
</g>
<!-- Node0&#45;&gt;Node2 -->
<g id="edge6" class="edge">
<title>Node0&#45;&gt;Node2</title>
<path fill="none" stroke="midnightblue" d="M73.49,-258.43C90.99,-278.07 123.59,-302.26 155,-316.5 176.71,-326.34 204.55,-331.97 217.81,-327.14"/>
<polygon fill="midnightblue" stroke="midnightblue" points="76.17,-256.18 67.15,-250.61 70.73,-260.59 76.17,-256.18"/>
</g>
<!-- Node3 -->
<g id="node4" class="node">
<title>Node3</title>
<g id="a_node4"><a xlink:href="class_example_flow_element_b.html" target="_top" xlink:title=" ">
<polygon fill="none" stroke="black" points="161.5,-270 161.5,-289 291.5,-289 291.5,-270 161.5,-270"/>
<text text-anchor="middle" x="226.5" y="-277" font-family="Helvetica,sans-Serif" font-size="10.00">ExampleFlowElementB</text>
</a>
</g>
</g>
<!-- Node0&#45;&gt;Node3 -->
<g id="edge7" class="edge">
<title>Node0&#45;&gt;Node3</title>
<path fill="none" stroke="midnightblue" d="M129.29,-240.51C162.39,-248.52 198.51,-260.31 215.55,-269.98"/>
<polygon fill="midnightblue" stroke="midnightblue" points="129.67,-237.01 119.14,-238.15 128.09,-243.82 129.67,-237.01"/>
</g>
<!-- Node0&#45;&gt;Node3 -->
<g id="edge8" class="edge">
<title>Node0&#45;&gt;Node3</title>
<path fill="none" stroke="midnightblue" d="M126.57,-253.12C148.08,-258.85 171.14,-265 189.58,-269.92"/>
<polygon fill="midnightblue" stroke="midnightblue" points="127.39,-249.71 116.82,-250.52 125.58,-256.48 127.39,-249.71"/>
</g>
<!-- Node0&#45;&gt;Node3 -->
<g id="edge9" class="edge">
<title>Node0&#45;&gt;Node3</title>
<path fill="none" stroke="midnightblue" d="M91.11,-254.43C110.8,-262.11 137.15,-269.94 161.29,-275.58"/>
<polygon fill="midnightblue" stroke="midnightblue" points="92.31,-251.14 81.73,-250.57 89.64,-257.61 92.31,-251.14"/>
</g>
<!-- Node4 -->
<g id="node5" class="node">
<title>Node4</title>
<g id="a_node5"><a xlink:href="classfiftyone_1_1pipeline_1_1core_1_1_javascript_builder_element.html" target="_top" xlink:title="The JavaScriptBuilder aggregates JavaScript properties from FlowElements in the Pipeline.">
<polygon fill="none" stroke="black" points="155,-220.5 155,-250.5 298,-250.5 298,-220.5 155,-220.5"/>
<text text-anchor="start" x="163" y="-238.5" font-family="Helvetica,sans-Serif" font-size="10.00">fiftyone\pipeline\core</text>
<text text-anchor="middle" x="226.5" y="-227.5" font-family="Helvetica,sans-Serif" font-size="10.00">\JavascriptBuilderElement</text>
</a>
</g>
</g>
<!-- Node0&#45;&gt;Node4 -->
<g id="edge10" class="edge">
<title>Node0&#45;&gt;Node4</title>
<path fill="none" stroke="midnightblue" d="M129.33,-222.17C137.78,-221.96 146.43,-221.95 154.91,-222.13"/>
<polygon fill="midnightblue" stroke="midnightblue" points="129.01,-218.67 119.14,-222.51 129.25,-225.67 129.01,-218.67"/>
</g>
<!-- Node0&#45;&gt;Node4 -->
<g id="edge11" class="edge">
<title>Node0&#45;&gt;Node4</title>
<path fill="none" stroke="midnightblue" d="M129.33,-235.5C137.78,-235.5 146.43,-235.5 154.91,-235.5"/>
<polygon fill="midnightblue" stroke="midnightblue" points="129.14,-232 119.14,-235.5 129.14,-239 129.14,-232"/>
</g>
<!-- Node0&#45;&gt;Node4 -->
<g id="edge12" class="edge">
<title>Node0&#45;&gt;Node4</title>
<path fill="none" stroke="midnightblue" d="M129.33,-248.83C137.78,-249.04 146.43,-249.05 154.91,-248.87"/>
<polygon fill="midnightblue" stroke="midnightblue" points="129.25,-245.33 119.14,-248.49 129.01,-252.33 129.25,-245.33"/>
</g>
<!-- Node5 -->
<g id="node6" class="node">
<title>Node5</title>
<g id="a_node6"><a xlink:href="classfiftyone_1_1pipeline_1_1core_1_1_json_bundler_element.html" target="_top" xlink:title="The JSONBundler aggregates all properties from FlowElements into a JSON object It is used for retriev...">
<polygon fill="none" stroke="black" points="167,-171.5 167,-201.5 286,-201.5 286,-171.5 167,-171.5"/>
<text text-anchor="start" x="175" y="-189.5" font-family="Helvetica,sans-Serif" font-size="10.00">fiftyone\pipeline\core</text>
<text text-anchor="middle" x="226.5" y="-178.5" font-family="Helvetica,sans-Serif" font-size="10.00">\JsonBundlerElement</text>
</a>
</g>
</g>
<!-- Node0&#45;&gt;Node5 -->
<g id="edge13" class="edge">
<title>Node0&#45;&gt;Node5</title>
<path fill="none" stroke="midnightblue" d="M89.58,-216.29C110.93,-207.18 140.66,-197.55 166.87,-190.93"/>
<polygon fill="midnightblue" stroke="midnightblue" points="88.08,-213.12 80.4,-220.42 90.96,-219.5 88.08,-213.12"/>
</g>
<!-- Node0&#45;&gt;Node5 -->
<g id="edge14" class="edge">
<title>Node0&#45;&gt;Node5</title>
<path fill="none" stroke="midnightblue" d="M121,-217.53C138.68,-212.28 157.81,-206.6 174.82,-201.55"/>
<polygon fill="midnightblue" stroke="midnightblue" points="119.94,-214.2 111.35,-220.4 121.93,-220.91 119.94,-214.2"/>
</g>
<!-- Node0&#45;&gt;Node5 -->
<g id="edge15" class="edge">
<title>Node0&#45;&gt;Node5</title>
<path fill="none" stroke="midnightblue" d="M128.83,-228.53C156.54,-221.01 186.45,-210.74 205.54,-201.61"/>
<polygon fill="midnightblue" stroke="midnightblue" points="127.92,-225.15 119.14,-231.07 129.7,-231.92 127.92,-225.15"/>
</g>
<!-- Node6 -->
<g id="node7" class="node">
<title>Node6</title>
<g id="a_node7"><a xlink:href="classfiftyone_1_1pipeline_1_1core_1_1_sequence_element.html" target="_top" xlink:title="The SequenceElement stores session data regarding requests for client side JavaScript from the JavaSc...">
<polygon fill="none" stroke="black" points="167,-122.5 167,-152.5 286,-152.5 286,-122.5 167,-122.5"/>
<text text-anchor="start" x="175" y="-140.5" font-family="Helvetica,sans-Serif" font-size="10.00">fiftyone\pipeline\core</text>
<text text-anchor="middle" x="226.5" y="-129.5" font-family="Helvetica,sans-Serif" font-size="10.00">\SequenceElement</text>
</a>
</g>
</g>
<!-- Node0&#45;&gt;Node6 -->
<g id="edge16" class="edge">
<title>Node0&#45;&gt;Node6</title>
<path fill="none" stroke="midnightblue" d="M72.61,-212.07C89.78,-190.38 122.7,-162.11 155,-144.5 158.76,-142.45 162.73,-140.51 166.78,-138.73"/>
<polygon fill="midnightblue" stroke="midnightblue" points="69.67,-210.16 66.65,-220.31 75.34,-214.26 69.67,-210.16"/>
</g>
<!-- Node0&#45;&gt;Node6 -->
<g id="edge17" class="edge">
<title>Node0&#45;&gt;Node6</title>
<path fill="none" stroke="midnightblue" d="M84.57,-213.42C102.83,-197.58 129.12,-176.62 155,-162.5 161.73,-158.83 169.1,-155.53 176.46,-152.61"/>
<polygon fill="midnightblue" stroke="midnightblue" points="81.96,-211.06 76.78,-220.3 86.59,-216.31 81.96,-211.06"/>
</g>
<!-- Node0&#45;&gt;Node6 -->
<g id="edge18" class="edge">
<title>Node0&#45;&gt;Node6</title>
<path fill="none" stroke="midnightblue" d="M104.13,-214.17C119.49,-202.95 137.34,-190.13 155,-180.5 174.84,-169.68 200.28,-162.02 214.54,-152.57"/>
<polygon fill="midnightblue" stroke="midnightblue" points="101.88,-211.49 95.87,-220.21 106.01,-217.14 101.88,-211.49"/>
</g>
<!-- Node7 -->
<g id="node8" class="node">
<title>Node7</title>
<g id="a_node8"><a xlink:href="classfiftyone_1_1pipeline_1_1core_1_1_set_header_element.html" target="_top" xlink:title="Set response headers element class.">
<polygon fill="none" stroke="black" points="167,-73.5 167,-103.5 286,-103.5 286,-73.5 167,-73.5"/>
<text text-anchor="start" x="175" y="-91.5" font-family="Helvetica,sans-Serif" font-size="10.00">fiftyone\pipeline\core</text>
<text text-anchor="middle" x="226.5" y="-80.5" font-family="Helvetica,sans-Serif" font-size="10.00">\SetHeaderElement</text>
</a>
</g>
</g>
<!-- Node0&#45;&gt;Node7 -->
<g id="edge19" class="edge">
<title>Node0&#45;&gt;Node7</title>
<path fill="none" stroke="midnightblue" d="M67.81,-210.82C81.57,-178.26 113.69,-125.38 155,-95.5 158.68,-92.84 162.68,-90.43 166.83,-88.32"/>
<polygon fill="midnightblue" stroke="midnightblue" points="64.52,-209.64 64.14,-220.23 71.04,-212.19 64.52,-209.64"/>
</g>
<!-- Node0&#45;&gt;Node7 -->
<g id="edge20" class="edge">
<title>Node0&#45;&gt;Node7</title>
<path fill="none" stroke="midnightblue" d="M73.35,-211.6C89.17,-184.27 118.49,-139.91 155,-113.5 160.26,-109.69 166.16,-106.42 172.24,-103.62"/>
<polygon fill="midnightblue" stroke="midnightblue" points="70.19,-210.07 68.32,-220.5 76.29,-213.51 70.19,-210.07"/>
</g>
<!-- Node0&#45;&gt;Node7 -->
<g id="edge21" class="edge">
<title>Node0&#45;&gt;Node7</title>
<path fill="none" stroke="midnightblue" d="M82.15,-212.02C98.94,-188.26 124.45,-153.6 155,-131.5 172.78,-118.64 197.81,-111.86 212.77,-103.56"/>
<polygon fill="midnightblue" stroke="midnightblue" points="79.26,-210.04 76.36,-220.23 84.98,-214.07 79.26,-210.04"/>
</g>
<!-- Node8 -->
<g id="node9" class="node">
<title>Node8</title>
<g id="a_node9"><a xlink:href="classfiftyone_1_1pipeline_1_1engines_1_1_engine.html" target="_top" xlink:title="An engine is an extension of the Pipeline Core flowElement class It allows for a cache,...">
<polygon fill="none" stroke="black" points="158,-24.5 158,-54.5 295,-54.5 295,-24.5 158,-24.5"/>
<text text-anchor="start" x="166" y="-42.5" font-family="Helvetica,sans-Serif" font-size="10.00">fiftyone\pipeline\engines</text>
<text text-anchor="middle" x="226.5" y="-31.5" font-family="Helvetica,sans-Serif" font-size="10.00">\Engine</text>
</a>
</g>
</g>
<!-- Node0&#45;&gt;Node8 -->
<g id="edge22" class="edge">
<title>Node0&#45;&gt;Node8</title>
<path fill="none" stroke="midnightblue" d="M66.28,-210.33C77.56,-171.28 105.82,-97.21 155,-55.5 155.89,-54.74 156.81,-54.01 157.74,-53.3"/>
<polygon fill="midnightblue" stroke="midnightblue" points="62.8,-209.79 63.55,-220.36 69.55,-211.63 62.8,-209.79"/>
</g>
<!-- Node0&#45;&gt;Node8 -->
<g id="edge29" class="edge">
<title>Node0&#45;&gt;Node8</title>
<path fill="none" stroke="midnightblue" d="M69.97,-210.82C83.13,-175.47 110.5,-111.24 155,-73.5 165.4,-64.68 179.13,-58.89 191.71,-54.51"/>
<polygon fill="midnightblue" stroke="midnightblue" points="66.62,-209.8 66.48,-220.39 73.19,-212.19 66.62,-209.8"/>
</g>
<!-- Node9 -->
<g id="node10" class="node">
<title>Node9</title>
<g id="a_node10"><a xlink:href="classfiftyone_1_1pipeline_1_1cloudrequestengine_1_1_cloud_request_engine.html" target="_top" xlink:title=" ">
<polygon fill="none" stroke="black" points="334,-73.5 334,-103.5 528,-103.5 528,-73.5 334,-73.5"/>
<text text-anchor="start" x="342" y="-91.5" font-family="Helvetica,sans-Serif" font-size="10.00">fiftyone\pipeline\cloudrequestengine</text>
<text text-anchor="middle" x="431" y="-80.5" font-family="Helvetica,sans-Serif" font-size="10.00">\CloudRequestEngine</text>
</a>
</g>
</g>
<!-- Node8&#45;&gt;Node9 -->
<g id="edge23" class="edge">
<title>Node8&#45;&gt;Node9</title>
<path fill="none" stroke="midnightblue" d="M299.42,-56.9C321.83,-62.32 346.32,-68.25 367.98,-73.49"/>
<polygon fill="midnightblue" stroke="midnightblue" points="300.18,-53.48 289.63,-54.53 298.53,-60.29 300.18,-53.48"/>
</g>
<!-- Node10 -->
<g id="node11" class="node">
<title>Node10</title>
<g id="a_node11"><a xlink:href="classfiftyone_1_1pipeline_1_1engines_1_1_cloud_engine_base.html" target="_top" xlink:title="Intermediary between Engine and CloudEngine classes.">
<polygon fill="none" stroke="black" points="362.5,-24.5 362.5,-54.5 499.5,-54.5 499.5,-24.5 362.5,-24.5"/>
<text text-anchor="start" x="370.5" y="-42.5" font-family="Helvetica,sans-Serif" font-size="10.00">fiftyone\pipeline\engines</text>
<text text-anchor="middle" x="431" y="-31.5" font-family="Helvetica,sans-Serif" font-size="10.00">\CloudEngineBase</text>
</a>
</g>
</g>
<!-- Node8&#45;&gt;Node10 -->
<g id="edge24" class="edge">
<title>Node8&#45;&gt;Node10</title>
<path fill="none" stroke="midnightblue" d="M305.23,-32.91C324.06,-32.65 344.03,-32.71 362.35,-33.09"/>
<polygon fill="midnightblue" stroke="midnightblue" points="305.15,-29.42 295.21,-33.09 305.27,-36.41 305.15,-29.42"/>
</g>
<!-- Node8&#45;&gt;Node10 -->
<g id="edge28" class="edge">
<title>Node8&#45;&gt;Node10</title>
<path fill="none" stroke="midnightblue" d="M305.23,-46.09C324.06,-46.35 344.03,-46.29 362.35,-45.91"/>
<polygon fill="midnightblue" stroke="midnightblue" points="305.27,-42.59 295.21,-45.91 305.15,-49.58 305.27,-42.59"/>
</g>
<!-- Node11 -->
<g id="node12" class="node">
<title>Node11</title>
<g id="a_node12"><a xlink:href="classfiftyone_1_1pipeline_1_1cloudrequestengine_1_1_cloud_engine.html" target="_top" xlink:title="This is a template for all 51Degrees cloud engines.">
<polygon fill="none" stroke="black" points="564,-24.5 564,-54.5 758,-54.5 758,-24.5 564,-24.5"/>
<text text-anchor="start" x="572" y="-42.5" font-family="Helvetica,sans-Serif" font-size="10.00">fiftyone\pipeline\cloudrequestengine</text>
<text text-anchor="middle" x="661" y="-31.5" font-family="Helvetica,sans-Serif" font-size="10.00">\CloudEngine</text>
</a>
</g>
</g>
<!-- Node10&#45;&gt;Node11 -->
<g id="edge25" class="edge">
<title>Node10&#45;&gt;Node11</title>
<path fill="none" stroke="midnightblue" d="M509.85,-39.5C527.2,-39.5 545.79,-39.5 563.78,-39.5"/>
<polygon fill="midnightblue" stroke="midnightblue" points="509.79,-36 499.79,-39.5 509.79,-43 509.79,-36"/>
</g>
<!-- Node12 -->
<g id="node13" class="node">
<title>Node12</title>
<g id="a_node13"><a xlink:href="classfiftyone_1_1pipeline_1_1devicedetection_1_1_device_detection_cloud.html" target="_top" xlink:title=" ">
<polygon fill="none" stroke="black" points="794,-49.5 794,-79.5 970,-79.5 970,-49.5 794,-49.5"/>
<text text-anchor="start" x="802" y="-67.5" font-family="Helvetica,sans-Serif" font-size="10.00">fiftyone\pipeline\devicedetection</text>
<text text-anchor="middle" x="882" y="-56.5" font-family="Helvetica,sans-Serif" font-size="10.00">\DeviceDetectionCloud</text>
</a>
</g>
</g>
<!-- Node11&#45;&gt;Node12 -->
<g id="edge26" class="edge">
<title>Node11&#45;&gt;Node12</title>
<path fill="none" stroke="midnightblue" d="M768.18,-51.62C776.83,-52.61 785.5,-53.6 793.98,-54.57"/>
<polygon fill="midnightblue" stroke="midnightblue" points="768.39,-48.12 758.06,-50.47 767.6,-55.08 768.39,-48.12"/>
</g>
<!-- Node13 -->
<g id="node14" class="node">
<title>Node13</title>
<g id="a_node14"><a xlink:href="classfiftyone_1_1pipeline_1_1devicedetection_1_1_hardware_profile_cloud.html" target="_top" xlink:title=" ">
<polygon fill="none" stroke="black" points="794,-0.5 794,-30.5 970,-30.5 970,-0.5 794,-0.5"/>
<text text-anchor="start" x="802" y="-18.5" font-family="Helvetica,sans-Serif" font-size="10.00">fiftyone\pipeline\devicedetection</text>
<text text-anchor="middle" x="882" y="-7.5" font-family="Helvetica,sans-Serif" font-size="10.00">\HardwareProfileCloud</text>
</a>
</g>
</g>
<!-- Node11&#45;&gt;Node13 -->
<g id="edge27" class="edge">
<title>Node11&#45;&gt;Node13</title>
<path fill="none" stroke="midnightblue" d="M768.18,-27.86C776.83,-26.92 785.5,-25.97 793.98,-25.04"/>
<polygon fill="midnightblue" stroke="midnightblue" points="767.62,-24.4 758.06,-28.97 768.38,-31.36 767.62,-24.4"/>
</g>
</g>
</svg>
